<?xml version="1.0" standalone="no"?>
<!DOCTYPE svg PUBLIC "-//W3C//DTD SVG 20010904//EN"
 "http://www.w3.org/TR/2001/REC-SVG-20010904/DTD/svg10.dtd">
<svg version="1.0" xmlns="http://www.w3.org/2000/svg"
 width="1920.000000pt" height="1920.000000pt" viewBox="0 0 1920.000000 1920.000000"
 preserveAspectRatio="xMidYMid meet">
<metadata>
Created by potrace 1.11, written by Peter Selinger 2001-2013
</metadata>
<g transform="translate(0.000000,1920.000000) scale(0.100000,-0.100000)"
fill="#000000" stroke="none">
<path d="M2632 12675 c-65 -20 -127 -73 -159 -135 l-28 -55 0 -2890 0 -2891
34 -54 c41 -67 78 -99 145 -122 48 -16 208 -17 2913 -18 2853 0 2862 0 2917
20 36 14 69 36 99 69 85 90 77 -199 75 3021 l-3 2865 -24 48 c-31 64 -84 113
-149 137 -52 20 -78 20 -2915 19 -2357 0 -2870 -3 -2905 -14z"/>
<path d="M10772 12675 c-114 -34 -192 -143 -192 -269 0 -45 9 -70 61 -172 34
-65 516 -1028 1072 -2139 556 -1111 1015 -2021 1019 -2023 4 -2 8 -9 8 -15 0
-7 160 -331 355 -722 263 -526 364 -720 392 -747 42 -44 125 -78 188 -78 24 0
68 9 98 20 90 34 119 73 250 337 65 131 122 245 126 253 24 41 211 421 210
426 0 4 3 10 8 13 11 8 53 93 53 108 0 6 3 13 8 15 4 2 517 1022 1141 2268
623 1246 1147 2292 1165 2324 27 53 31 69 31 140 0 63 -5 90 -22 121 -27 52
-77 101 -127 128 l-41 22 -2880 1 c-2296 1 -2889 -1 -2923 -11z"/>
</g>
</svg>
