<?xml version="1.0" standalone="no"?>
<!DOCTYPE svg PUBLIC "-//W3C//DTD SVG 20010904//EN"
 "http://www.w3.org/TR/2001/REC-SVG-20010904/DTD/svg10.dtd">
<svg version="1.0" xmlns="http://www.w3.org/2000/svg"
 width="2056.000000pt" height="2056.000000pt" viewBox="0 0 2056.000000 2056.000000"
 preserveAspectRatio="xMidYMid meet">
<metadata>
Created by potrace 1.11, written by Peter Selinger 2001-2013
</metadata>
<g transform="translate(0.000000,2056.000000) scale(0.100000,-0.100000)"
fill="#000000" stroke="none">
<path d="M2799 20556 c-2 -2 -42 -6 -88 -10 -46 -3 -86 -8 -90 -10 -3 -2 -37
-7 -76 -11 -38 -3 -72 -8 -75 -10 -6 -4 -30 -9 -95 -20 -16 -3 -38 -8 -47 -11
-9 -3 -25 -6 -35 -8 -99 -20 -335 -99 -483 -162 -114 -50 -378 -187 -390 -204
-3 -3 -12 -9 -20 -12 -26 -10 -242 -168 -330 -242 -173 -145 -378 -365 -496
-532 -26 -38 -51 -71 -54 -74 -4 -3 -27 -38 -51 -78 -173 -285 -266 -492 -352
-782 -29 -98 -38 -135 -57 -235 -6 -27 -12 -61 -15 -75 -3 -14 -8 -45 -11 -70
-3 -25 -7 -56 -10 -70 -19 -116 -26 -517 -11 -670 23 -227 106 -596 166 -735
5 -11 17 -40 26 -65 44 -118 143 -321 218 -445 387 -644 988 -1115 1703 -1335
124 -38 339 -86 454 -100 52 -6 106 -14 120 -18 14 -4 1905 -8 4203 -9 l4177
-3 0 3000 0 3000 -4139 0 c-2276 0 -4140 -2 -4142 -4z"/>
<path d="M15608 20555 c-1 -2 -37 -6 -78 -9 -113 -10 -218 -26 -380 -61 -242
-51 -583 -184 -811 -315 -69 -40 -255 -160 -289 -187 -356 -278 -574 -513
-781 -843 -139 -223 -299 -591 -345 -795 -1 -5 -9 -38 -18 -72 -18 -70 -35
-150 -42 -203 -2 -19 -6 -42 -9 -50 -2 -8 -7 -40 -10 -70 -3 -30 -10 -89 -14
-130 -9 -77 -7 -515 2 -560 3 -14 9 -52 13 -85 9 -73 10 -81 18 -125 4 -19 9
-51 13 -70 3 -19 7 -42 8 -50 14 -77 89 -334 115 -395 4 -11 18 -47 30 -80 37
-97 158 -342 218 -440 212 -344 421 -576 763 -850 37 -29 209 -144 284 -189
101 -61 314 -164 430 -209 159 -61 395 -132 470 -142 11 -1 45 -7 75 -13 30
-6 73 -14 95 -17 22 -3 54 -8 70 -10 17 -3 50 -8 75 -11 25 -4 406 -9 848 -11
l802 -4 0 3001 0 3001 -774 -1 c-426 -1 -776 -3 -778 -5z"/>
<path d="M5799 13276 c-2 -2 -42 -7 -89 -10 -71 -6 -204 -26 -335 -51 -134
-26 -373 -100 -530 -165 -87 -36 -361 -174 -385 -194 -8 -7 -43 -30 -78 -51
-146 -87 -340 -243 -507 -410 -411 -409 -701 -948 -814 -1515 -6 -30 -14 -66
-16 -80 -3 -14 -8 -47 -11 -75 -4 -27 -8 -52 -10 -55 -9 -17 -19 -230 -19
-405 0 -178 6 -285 20 -380 3 -16 7 -46 10 -65 5 -35 7 -45 25 -135 6 -27 12
-59 14 -70 20 -100 92 -331 146 -465 12 -30 49 -111 81 -179 229 -473 595
-893 1034 -1186 164 -109 280 -171 508 -274 67 -30 321 -116 387 -130 30 -7
66 -17 80 -21 14 -5 39 -12 55 -15 94 -16 164 -28 190 -31 17 -2 39 -6 50 -8
11 -3 63 -9 115 -13 121 -10 11996 -11 12110 -1 47 5 101 10 120 13 19 3 46 7
60 9 248 37 505 111 739 213 68 29 136 60 150 68 137 74 237 130 241 135 3 3
30 21 60 39 55 34 222 155 250 182 8 8 38 32 65 54 71 57 257 245 341 345 176
210 341 473 444 710 18 41 41 93 50 115 62 142 154 486 175 652 4 26 8 59 11
73 25 149 25 668 -1 770 -2 8 -6 35 -9 60 -14 103 -58 303 -96 424 -248 805
-814 1464 -1574 1831 -124 60 -339 145 -366 145 -9 0 -20 4 -26 9 -10 9 -215
63 -304 80 -30 6 -68 13 -85 16 -16 3 -57 10 -90 15 -33 5 -82 12 -110 16 -49
8 -12068 18 -12076 10z"/>
<path d="M0 3000 l0 -3002 803 5 c441 2 818 7 838 10 20 3 59 8 85 11 130 16
289 50 504 110 54 15 234 82 312 117 578 253 1069 691 1393 1244 57 97 182
352 191 392 4 15 10 33 14 38 17 22 112 334 127 415 2 13 10 54 18 90 8 36 17
88 21 116 3 27 8 56 9 65 26 136 27 626 1 769 -2 14 -7 43 -10 65 -5 39 -19
120 -31 180 -13 63 -68 270 -74 280 -4 6 -13 30 -20 55 -72 256 -299 672 -496
910 -20 25 -53 65 -73 90 -122 147 -373 374 -561 505 -154 107 -520 305 -564
305 -7 0 -17 4 -23 9 -35 33 -434 149 -608 177 -21 3 -46 7 -55 9 -9 2 -41 6
-71 10 -30 3 -68 9 -85 12 -16 3 -393 7 -837 10 l-808 4 0 -3001z"/>
</g>
</svg>
